# xmcd
# 
# Track frame offsets:
#     150
#     12030
#     22345
#     36810
#     48830
#     57727
#     69522
#     84412
#     94137
#     104600
#     118325
#     131155
#     140367
#     151057
#     160810
#     173305
#     183852
#     195490
#     206740
#     218577
# 
# Disc length: 3069
# 
# Revision: 3
# Processed by: cddbd v1.5.2PL0 Copyright (c) Steve Scherf et al.
# Submitted via: fre:ac v1.1beta1pre3
# 
DISCID=120bfb14
DTITLE=Various Artist - 20 Country Greats
DYEAR=1997
DGENRE=Country
TTITLE0=Dolly Parton - Making Believe
TTITLE1=Dave Dudley - Six Days on the Road
TTITLE2=Anne Murray - Both Sides Now
TTITLE3=Waylon Jennings - Don't Think Twice
TTITLE4=Burl Ives - Little Bitty Tear
TTITLE5=Roy Drusky - Three Hearts in a Tangle
TTITLE6=Tex Ritter - Hillbilly Heaven
TTITLE7=Mickey Gilley - Fraulin
TTITLE8=Tex Ritter - Have I Stayed Away Too Long
TTITLE9=Willie Nelson - Home Is Where You're Happy
TTITLE10=Lynn Anderson - Rose Garden
TTITLE11=Frankie Laine - Rawhide
TTITLE12=Billie Jo Spears - I'm So Lonesome I Could Cry
TTITLE13=Merle Travis - 16 Tons
TTITLE14=Oakridge Boys - In the Shelter of His Arms
TTITLE15=Waylon Jennings - Burning Memories
TTITLE16=Barbara Fairchild - You Can't Put the City in a Country Girl
TTITLE17=Anne Murray - The Last Thing on My Mind
TTITLE18=Lynn Anderson - Rodeo Cowboy
TTITLE19=Willie Nelson - Is There Something on Your Mind
EXTD=YEAR: 1997
EXTT0=
EXTT1=
EXTT2=
EXTT3=
EXTT4=
EXTT5=
EXTT6=
EXTT7=
EXTT8=
EXTT9=
EXTT10=
EXTT11=
EXTT12=
EXTT13=
EXTT14=
EXTT15=
EXTT16=
EXTT17=
EXTT18=
EXTT19=
PLAYORDER=
